<?xml version="1.0" encoding="UTF-8" standalone="no"?><!DOCTYPE svg PUBLIC "-//W3C//DTD SVG 1.1//EN" "http://www.w3.org/Graphics/SVG/1.1/DTD/svg11.dtd"><svg width="100%" height="100%" viewBox="0 0 2146 1213" version="1.1" xmlns="http://www.w3.org/2000/svg" xmlns:xlink="http://www.w3.org/1999/xlink" xml:space="preserve" xmlns:serif="http://www.serif.com/" style="fill-rule:evenodd;clip-rule:evenodd;stroke-linecap:round;stroke-linejoin:round;stroke-miterlimit:1.5;"><g><path d="M1452.97,1036.33c5.263,12.61 19.774,18.575 32.384,13.312c12.61,-5.263 18.575,-19.774 13.312,-32.384c-5.263,-12.61 -19.774,-18.575 -32.384,-13.312c-12.61,5.263 -18.575,19.774 -13.312,32.384Z" style="fill:#0072ce;"/><path d="M2002.1,1029.97c11.277,7.717 14.168,23.137 6.451,34.414c-7.717,11.277 -23.137,14.168 -34.414,6.451c-11.277,-7.717 -14.167,-23.137 -6.451,-34.414c7.717,-11.277 23.137,-14.168 34.414,-6.451Z" style="fill:#0072ce;"/><path d="M1470.1,1013.08c-27.645,-95.846 -0.147,-255.686 62.988,-285.98c57.965,-27.813 158.468,-129.277 176.953,-155.168c28.807,-40.349 207.208,167.223 231.454,227.863c24.247,60.639 -97.152,91.876 -85.976,135.973c8.244,32.53 76.826,77.767 120.34,106.242" style="fill:none;stroke:#0072ce;stroke-width:18.75px;"/><path d="M1763.06,1112.57c6.764,11.873 21.895,16.021 33.768,9.257c11.873,-6.765 16.02,-21.895 9.256,-33.768c-6.764,-11.873 -21.895,-16.02 -33.768,-9.256c-11.872,6.764 -16.02,21.895 -9.256,33.767Z"/><path d="M2063.73,932.097c12.277,6 17.373,20.838 11.372,33.115c-6,12.276 -20.838,17.372 -33.115,11.372c-12.276,-6 -17.372,-20.839 -11.372,-33.115c6,-12.277 20.839,-17.373 33.115,-11.372Z"/><path d="M1777.21,1087.4c-30.496,-68.414 -45.743,-176.85 -97.366,-247.49c-76.814,-105.111 -302.721,-37.476 -318.119,-79.575c-17.869,-48.855 158.687,-145.083 253.561,-160.056c82.128,-12.963 280.66,31.272 315.685,70.213c35.024,38.941 -129.558,114.314 -105.537,163.433c18.849,38.542 148.728,86.416 214.073,113.888" style="fill:none;stroke:#000;stroke-width:18.75px;"/></g><g><path d="M85.247,1059.11c-12.901,4.501 -19.722,18.63 -15.22,31.532c4.501,12.902 18.63,19.722 31.532,15.221c12.901,-4.501 19.722,-18.63 15.22,-31.532c-4.501,-12.902 -18.63,-19.722 -31.532,-15.221Z" style="fill:#0072ce;"/><path d="M695.256,1108.88c12.281,5.991 17.388,20.826 11.396,33.107c-5.991,12.281 -20.825,17.388 -33.106,11.396c-12.281,-5.991 -17.388,-20.825 -11.397,-33.106c5.991,-12.281 20.826,-17.388 33.107,-11.397Z" style="fill:#0072ce;"/><path d="M107.429,1077.6c124.472,-43.761 314.58,-115.19 280.415,-158.976c-29.673,-38.029 -364.899,-696.212 157.148,-280.428c34.003,27.082 64.263,92.471 118.306,133.719c42.034,32.082 135.046,26.626 142.214,48.967c8.285,25.82 -192.756,65.999 -247.51,112.719c-10.291,8.78 -15.414,17.791 -13.01,26.981c18.773,71.772 83.8,134.743 126.058,164.042" style="fill:none;stroke:#0072ce;stroke-width:18.75px;"/><path d="M243.11,1120.29c9.031,10.255 24.688,11.249 34.943,2.219c10.255,-9.031 11.25,-24.688 2.219,-34.943c-9.03,-10.255 -24.687,-11.25 -34.943,-2.219c-10.255,9.03 -11.249,24.688 -2.219,34.943Z"/><path d="M1121.29,946.932c3.193,13.287 -5.002,26.665 -18.288,29.858c-13.286,3.193 -26.665,-5.001 -29.858,-18.288c-3.193,-13.286 5.002,-26.665 18.288,-29.857c13.286,-3.193 26.665,5.001 29.858,18.287Z"/><path d="M251.874,1092.78c-50.804,-58.384 -120.055,-143.345 -123.162,-190.128c-0.735,-11.069 21.161,-44.706 53.895,-86.776c76.513,-98.338 212.239,-242.752 256.559,-252.723c63.28,-14.236 0.832,211.464 69.228,254.081c56.568,35.248 172.066,70.824 308.927,120.406c76.123,27.578 187.704,-26.592 241.909,-34.988c19.622,-3.04 29.163,16.052 34.515,35.621" style="fill:none;stroke:#000;stroke-width:18.75px;"/></g><g><g><path d="M1948.41,57.937l-0,585.199c-0,17.452 -32.611,31.349 -73.152,31.349l-1544.08,-0c-40.337,-0 -73.152,-14.101 -73.152,-31.349l0,-585.199c0,-17.441 32.599,-35.212 73.152,-35.212l1544.29,-0c40.336,0.318 72.947,17.771 72.947,35.212Z" style="fill:#0072ce;fill-rule:nonzero;stroke:#000;stroke-width:45.45px;stroke-linecap:butt;stroke-miterlimit:2;"/><rect x="1018.8" y="230.623" width="804.232" height="28.429" style="fill:#fff;"/><rect x="1018.8" y="299.797" width="804.232" height="28.429" style="fill:#fff;fill-opacity:0.55;"/><rect x="1018.8" y="368.983" width="804.232" height="28.429" style="fill:#fff;fill-opacity:0.55;"/><rect x="1018.8" y="438.158" width="804.232" height="28.429" style="fill:#fff;fill-opacity:0.55;"/><g><g id="hand"><path d="M526.28,394.818c-3.409,4.92 -9.033,7.851 -15.01,7.851c-8.692,0 -16.248,-6.181 -17.953,-14.714l-6.431,-34.156c-1.727,-9.783 4.795,-19.282 14.544,-21.168c1.114,-0.216 2.238,-0.318 3.375,-0.318c8.294,0 15.589,5.681 17.611,13.726l5.579,29.429c0.057,0.318 0.114,0.624 0.216,0.931l0.932,4.943c0.863,4.693 -0.159,9.544 -2.863,13.476Z" style="fill:#fff;fill-rule:nonzero;"/><path d="M559.469,388.012c-1.136,0.204 -2.284,0.306 -3.42,0.306c-8.794,0 -16.396,-6.317 -17.998,-14.964l-7.215,-38.428c-0.216,-1.136 -0.318,-2.283 -0.318,-3.442c-0,-10.056 8.283,-18.351 18.35,-18.351c8.772,0 16.385,6.306 18.032,14.931l7.227,38.314c0.227,1.159 0.341,2.329 0.341,3.511c-0,8.817 -6.329,16.464 -14.999,18.123Z" style="fill:#fff;fill-rule:nonzero;"/><path d="M576.354,326.325c-1.886,-9.749 -1.534,-19.793 1,-29.383c0.636,-1.841 2.386,-3.102 4.329,-3.102c1.727,-0 3.318,0.988 4.09,2.534c5.216,12.76 9.908,25.804 14.067,39.121c2.295,7.158 2.295,14.418 4.261,21.736c-8.692,1.818 -16.123,7.476 -20.18,15.373c0.262,-2.613 0.148,-5.249 -0.318,-7.829l-4.579,-24.224l-2.647,-14.112l-0.023,-0.114Z" style="fill:#fff;fill-rule:nonzero;"/><path d="M610.827,219.03c2.75,4.931 5.398,9.908 7.977,14.93c3.579,6.852 10.624,16.123 12.623,8.601l5.557,-19.759c2.386,-10.124 -3.943,-20.43 -14.044,-22.872c-4.977,-1.341 -10.261,-0.694 -14.771,1.806c-2.943,1.648 -5.375,4.068 -7.045,6.999c4.056,2.557 7.397,6.113 9.703,10.295Z" style="fill:#fff;fill-rule:nonzero;"/><path d="M582.683,268.434c5.033,-1.398 9.783,-3.671 13.998,-6.738c0.83,-0.705 1.898,-1.091 2.988,-1.091c1.569,-0 3.046,0.818 3.886,2.147c1.193,1.966 0.75,4.545 -1.056,5.977c-2.591,2.068 -5.443,3.772 -8.488,5.102c-3.931,1.75 -5.772,6.385 -4.102,10.351c3,6.851 5.863,13.953 8.522,21.066c5.602,-1.443 14.987,-4.443 19.589,-8.352c0.829,-0.715 1.897,-1.124 2.999,-1.124c1.557,-0 3.012,0.795 3.864,2.102c1.215,1.954 0.806,4.556 -0.989,5.999c-5.022,3.681 -10.669,6.454 -16.657,8.17c-2.375,0.795 -4,3.022 -4,5.533c0,0.648 0.103,1.284 0.318,1.898c1.728,5.01 3.386,9.953 4.966,15.293c4.227,14.476 18.452,23.861 33.428,22.055c4.693,-0.636 9.465,-0.239 13.999,1.147c-11.329,-47.154 -28.963,-92.558 -52.438,-134.996c-2.602,-4.727 -7.067,-8.147 -12.294,-9.454c-1.398,-0.364 -2.841,-0.523 -4.272,-0.523c-3.58,0.023 -7.068,1.08 -10.045,3.057c-9.056,5.942 -12.067,17.975 -6.874,27.463c4.465,8.158 8.658,16.475 12.658,24.918Z" style="fill:#fff;fill-rule:nonzero;"/><path d="M646.187,364.935c13.806,-0 25.168,11.362 25.168,25.167l-0,49.609c0.011,16.782 -6.227,32.996 -17.487,45.449c-6.794,7.534 -10.544,17.328 -10.521,27.463l-0,17.226c-15.692,6.158 -33.554,9.431 -51.563,10.51c-6.522,0.386 -13.055,0.545 -19.509,0.545c-17.498,0 -33.417,-3.272 -47.586,-8.317l-0,-18.043c-0.011,-10.431 -4.022,-20.476 -11.215,-28.054c-12.021,-12.59 -18.736,-29.349 -18.736,-46.768l-0,-32.417c4.692,3.295 10.283,5.068 16.021,5.056c1.727,-0.011 3.442,-0.17 5.147,-0.488c10.749,-2.046 19.35,-10.238 21.895,-20.884c5.079,4.408 11.578,6.851 18.294,6.862c1.749,0.012 3.499,-0.159 5.204,-0.499c8.362,-1.557 15.577,-6.886 19.509,-14.431c-0.057,1.057 -0.068,2.125 -0.011,3.17c-0,9.931 5.022,19.214 13.328,24.645c-3.125,1 -6.182,2.205 -9.147,3.614c-21.055,8.431 -32.928,22.656 -34.542,41.416c-0.011,0.113 -0.023,0.227 -0.023,0.341c0,2.329 1.909,4.238 4.239,4.238l0.011,-0c2.193,-0.012 4.034,-1.716 4.204,-3.886c1.398,-15.464 11.147,-26.963 29.065,-34.144c9.863,-3.795 20.248,-6.045 30.792,-6.704l20.634,-0c2.352,0.079 4.364,-1.693 4.579,-4.022c0.012,-0.114 0.012,-0.216 0.012,-0.33c-0,-2.329 -1.909,-4.238 -4.238,-4.249l-28.975,-0c-11.282,0.125 -20.827,-8.681 -21.611,-19.953c-0.023,-0.341 -0.023,-0.693 -0.023,-1.034c0,-11.544 9.488,-21.066 21.044,-21.088l36.041,-0Z" style="fill:#fff;"/></g><circle cx="580.751" cy="348.605" r="197.342" style="fill:none;stroke:#fff;stroke-width:16.67px;"/></g></g></g></svg>