<?xml version="1.0" encoding="UTF-8" standalone="no"?>
<!DOCTYPE svg PUBLIC "-//W3C//DTD SVG 1.1//EN" "http://www.w3.org/Graphics/SVG/1.1/DTD/svg11.dtd">
<svg width="100%" height="100%" viewBox="0 0 515 291" version="1.1" xmlns="http://www.w3.org/2000/svg" xmlns:xlink="http://www.w3.org/1999/xlink" xml:space="preserve" xmlns:serif="http://www.serif.com/" style="fill-rule:evenodd;clip-rule:evenodd;stroke-linecap:round;stroke-linejoin:round;stroke-miterlimit:1.5;">
    <g transform="matrix(1,0,0,1,-134.131,-197.121)">
        <g transform="matrix(0.259115,0.308895,-0.308895,0.259115,586.428,293.75)">
            <g transform="matrix(1.65286,-0.426968,0.216206,0.836964,-395.437,149.455)">
                <g transform="matrix(1.18247,-1.66716,0.844209,2.33516,-370.225,475.426)">
                    <path d="M348.714,248.719C349.977,251.745 353.46,253.177 356.486,251.914C359.512,250.651 360.944,247.168 359.681,244.142C358.418,241.115 354.935,239.684 351.909,240.947C348.882,242.21 347.451,245.693 348.714,248.719Z" style="fill:rgb(39,125,206);"/>
                    <path d="M480.504,247.193C483.211,249.045 483.904,252.746 482.052,255.452C480.2,258.159 476.5,258.852 473.793,257C471.087,255.148 470.393,251.448 472.245,248.741C474.097,246.035 477.798,245.341 480.504,247.193Z" style="fill:rgb(39,125,206);"/>
                    <path d="M352.824,243.14C346.19,220.137 352.789,181.775 367.941,174.505C381.853,167.83 405.974,143.478 410.41,137.265C417.324,127.581 460.14,177.398 465.959,191.952C471.778,206.505 442.643,214.002 445.325,224.585C447.303,232.393 463.763,243.249 474.206,250.083" style="fill:none;stroke:rgb(39,125,206);stroke-width:4.5px;"/>
                </g>
            </g>
            <g transform="matrix(1.65286,-0.426968,0.216206,0.836964,-453.84,148.432)">
                <g transform="matrix(1.18247,-1.66716,0.844209,2.33516,-337.251,493.469)">
                    <path d="M423.133,267.016C424.757,269.866 428.388,270.861 431.237,269.238C434.087,267.614 435.082,263.983 433.459,261.133C431.836,258.284 428.204,257.289 425.355,258.912C422.505,260.535 421.51,264.167 423.133,267.016Z"/>
                    <path d="M495.295,223.703C498.241,225.143 499.464,228.704 498.024,231.651C496.584,234.597 493.023,235.82 490.076,234.38C487.13,232.94 485.907,229.379 487.347,226.432C488.787,223.486 492.348,222.263 495.295,223.703Z"/>
                    <path d="M426.531,260.977C419.212,244.558 415.553,218.533 403.164,201.579C384.728,176.353 330.51,192.585 326.815,182.481C322.526,170.756 364.9,147.662 387.67,144.068C407.38,140.957 455.028,151.573 463.434,160.919C471.84,170.265 432.34,188.354 438.105,200.143C442.629,209.393 473.8,220.883 489.483,227.476" style="fill:none;stroke:black;stroke-width:4.5px;"/>
                </g>
            </g>
        </g>
        <g transform="matrix(0.403183,-1.73472e-18,1.73472e-18,0.403183,183.118,299.493)">
            <g transform="matrix(1.65286,-0.426968,0.216206,0.836964,-395.437,149.455)">
                <g transform="matrix(1.40672,0.717623,-0.363386,2.77802,214.465,-372.529)">
                    <path d="M20.459,254.187C17.363,255.267 15.726,258.658 16.806,261.755C17.887,264.851 21.278,266.488 24.374,265.408C27.47,264.328 29.107,260.937 28.027,257.84C26.947,254.744 23.556,253.107 20.459,254.187Z" style="fill:rgb(39,125,206);"/>
                    <path d="M166.861,266.132C169.809,267.569 171.034,271.13 169.597,274.077C168.159,277.025 164.598,278.25 161.651,276.812C158.704,275.374 157.478,271.814 158.916,268.867C160.354,265.919 163.914,264.694 166.861,266.132Z" style="fill:rgb(39,125,206);"/>
                    <path d="M25.783,258.623C55.656,248.12 101.282,230.977 93.083,220.469C85.961,211.342 5.507,53.378 130.798,153.166C138.959,159.666 146.221,175.359 159.192,185.259C169.28,192.958 191.602,191.649 193.323,197.011C195.311,203.207 147.061,212.851 133.92,224.063C131.451,226.17 130.221,228.333 130.798,230.539C135.304,247.764 150.91,262.877 161.052,269.909" style="fill:none;stroke:rgb(39,125,206);stroke-width:4.5px;"/>
                </g>
            </g>
            <g transform="matrix(1.65286,-0.426968,0.216206,0.836964,-453.84,148.432)">
                <g transform="matrix(1.40672,0.717623,-0.363386,2.77802,247.439,-354.485)">
                    <path d="M58.346,268.87C60.514,271.331 64.272,271.57 66.733,269.403C69.194,267.235 69.433,263.478 67.265,261.016C65.098,258.555 61.34,258.316 58.879,260.484C56.418,262.651 56.179,266.409 58.346,268.87Z"/>
                    <path d="M269.109,227.264C269.876,230.452 267.909,233.663 264.72,234.43C261.532,235.196 258.321,233.229 257.554,230.041C256.788,226.852 258.755,223.641 261.943,222.875C265.132,222.108 268.343,224.075 269.109,227.264Z"/>
                    <path d="M60.45,262.267C48.257,248.255 31.637,227.865 30.891,216.637C30.715,213.98 35.97,205.907 43.826,195.81C62.189,172.209 94.763,137.55 105.4,135.157C120.587,131.74 105.6,185.908 122.014,196.136C135.591,204.596 163.31,213.134 196.157,225.034C214.426,231.653 241.206,218.652 254.215,216.637C258.924,215.907 261.214,220.489 262.499,225.186" style="fill:none;stroke:black;stroke-width:4.5px;"/>
                </g>
            </g>
        </g>
        <g transform="matrix(2.72698,0,0,2.72698,-271.092,-67.0602)">
            <g>
                <path d="M320.076,101.976L320.076,153.479C320.076,155.015 317.206,156.238 313.638,156.238L177.744,156.238C174.194,156.238 171.306,154.997 171.306,153.479L171.306,101.976C171.306,100.441 174.175,98.877 177.744,98.877L313.656,98.877C317.206,98.905 320.076,100.441 320.076,101.976Z" style="fill:rgb(39,125,206);fill-rule:nonzero;stroke:black;stroke-width:4px;stroke-linecap:butt;stroke-miterlimit:2;"/>
                <g transform="matrix(1,0,0,1,1.63798,-0.097)">
                    <rect x="236.623" y="117.271" width="70.78" height="2.502" style="fill:white;"/>
                </g>
                <g transform="matrix(1,0,0,1,1.63798,-0.097)">
                    <rect x="236.623" y="123.359" width="70.78" height="2.502" style="fill:white;fill-opacity:0.55;"/>
                </g>
                <g transform="matrix(1,0,0,1,1.63798,-0.097)">
                    <rect x="236.623" y="129.448" width="70.78" height="2.502" style="fill:white;fill-opacity:0.55;"/>
                </g>
                <g transform="matrix(1,0,0,1,1.63798,-0.097)">
                    <rect x="236.623" y="135.536" width="70.78" height="2.502" style="fill:white;fill-opacity:0.55;"/>
                </g>
                <g transform="matrix(1,0,0,1,1.63798,-3.01304)">
                    <g id="hand" transform="matrix(1,0,0,1,0,0.21672)">
                        <path d="M193.277,134.421C192.977,134.854 192.482,135.112 191.956,135.112C191.191,135.112 190.526,134.568 190.376,133.817L189.81,130.811C189.658,129.95 190.232,129.114 191.09,128.948C191.188,128.929 191.287,128.92 191.387,128.92C192.117,128.92 192.759,129.42 192.937,130.128L193.428,132.718C193.433,132.746 193.438,132.773 193.447,132.8L193.529,133.235C193.605,133.648 193.515,134.075 193.277,134.421Z" style="fill:white;fill-rule:nonzero;"/>
                        <path d="M196.198,133.822C196.098,133.84 195.997,133.849 195.897,133.849C195.123,133.849 194.454,133.293 194.313,132.532L193.678,129.15C193.659,129.05 193.65,128.949 193.65,128.847C193.65,127.962 194.379,127.232 195.265,127.232C196.037,127.232 196.707,127.787 196.852,128.546L197.488,131.918C197.508,132.02 197.518,132.123 197.518,132.227C197.518,133.003 196.961,133.676 196.198,133.822Z" style="fill:white;fill-rule:nonzero;"/>
                        <path d="M197.684,128.393C197.518,127.535 197.549,126.651 197.772,125.807C197.828,125.645 197.982,125.534 198.153,125.534C198.305,125.534 198.445,125.621 198.513,125.757C198.972,126.88 199.385,128.028 199.751,129.2C199.953,129.83 199.953,130.469 200.126,131.113C199.361,131.273 198.707,131.771 198.35,132.466C198.373,132.236 198.363,132.004 198.322,131.777L197.919,129.645L197.686,128.403L197.684,128.393Z" style="fill:white;fill-rule:nonzero;"/>
                        <path d="M200.718,118.95C200.96,119.384 201.193,119.822 201.42,120.264C201.735,120.867 202.355,121.683 202.531,121.021L203.02,119.282C203.23,118.391 202.673,117.484 201.784,117.269C201.346,117.151 200.881,117.208 200.484,117.428C200.225,117.573 200.011,117.786 199.864,118.044C200.221,118.269 200.515,118.582 200.718,118.95Z" style="fill:white;fill-rule:nonzero;"/>
                        <path d="M198.241,123.298C198.684,123.175 199.102,122.975 199.473,122.705C199.546,122.643 199.64,122.609 199.736,122.609C199.874,122.609 200.004,122.681 200.078,122.798C200.183,122.971 200.144,123.198 199.985,123.324C199.757,123.506 199.506,123.656 199.238,123.773C198.892,123.927 198.73,124.335 198.877,124.684C199.141,125.287 199.393,125.912 199.627,126.538C200.12,126.411 200.946,126.147 201.351,125.803C201.424,125.74 201.518,125.704 201.615,125.704C201.752,125.704 201.88,125.774 201.955,125.889C202.062,126.061 202.026,126.29 201.868,126.417C201.426,126.741 200.929,126.985 200.402,127.136C200.193,127.206 200.05,127.402 200.05,127.623C200.05,127.68 200.059,127.736 200.078,127.79C200.23,128.231 200.376,128.666 200.515,129.136C200.887,130.41 202.139,131.236 203.457,131.077C203.87,131.021 204.29,131.056 204.689,131.178C203.692,127.028 202.14,123.032 200.074,119.297C199.845,118.881 199.452,118.58 198.992,118.465C198.869,118.433 198.742,118.419 198.616,118.419C198.301,118.421 197.994,118.514 197.732,118.688C196.935,119.211 196.67,120.27 197.127,121.105C197.52,121.823 197.889,122.555 198.241,123.298Z" style="fill:white;fill-rule:nonzero;"/>
                        <path d="M203.83,131.791C205.045,131.791 206.045,132.791 206.045,134.006L206.045,138.372C206.046,139.849 205.497,141.276 204.506,142.372C203.908,143.035 203.578,143.897 203.58,144.789L203.58,146.305C202.199,146.847 200.627,147.135 199.042,147.23C198.468,147.264 197.893,147.278 197.325,147.278C195.785,147.278 194.384,146.99 193.137,146.546L193.137,144.958C193.136,144.04 192.783,143.156 192.15,142.489C191.092,141.381 190.501,139.906 190.501,138.373L190.501,135.52C190.914,135.81 191.406,135.966 191.911,135.965C192.063,135.964 192.214,135.95 192.364,135.922C193.31,135.742 194.067,135.021 194.291,134.084C194.738,134.472 195.31,134.687 195.901,134.688C196.055,134.689 196.209,134.674 196.359,134.644C197.095,134.507 197.73,134.038 198.076,133.374C198.071,133.467 198.07,133.561 198.075,133.653C198.075,134.527 198.517,135.344 199.248,135.822C198.973,135.91 198.704,136.016 198.443,136.14C196.59,136.882 195.545,138.134 195.403,139.785C195.402,139.795 195.401,139.805 195.401,139.815C195.401,140.02 195.569,140.188 195.774,140.188L195.775,140.188C195.968,140.187 196.13,140.037 196.145,139.846C196.268,138.485 197.126,137.473 198.703,136.841C199.571,136.507 200.485,136.309 201.413,136.251L203.229,136.251C203.436,136.258 203.613,136.102 203.632,135.897C203.633,135.887 203.633,135.878 203.633,135.868C203.633,135.663 203.465,135.495 203.26,135.494L200.71,135.494C199.717,135.505 198.877,134.73 198.808,133.738C198.806,133.708 198.806,133.677 198.806,133.647C198.806,132.631 199.641,131.793 200.658,131.791L203.83,131.791Z" style="fill:white;"/>
                    </g>
                    <g transform="matrix(0.375009,0,0,0.375009,97.2786,17.1322)">
                        <circle cx="268.773" cy="302.495" r="46.313" style="fill:none;stroke:white;stroke-width:3.91px;"/>
                    </g>
                </g>
            </g>
        </g>
    </g>
</svg>
