<?xml version="1.0" encoding="UTF-8" standalone="no"?>
<!DOCTYPE svg PUBLIC "-//W3C//DTD SVG 1.1//EN" "http://www.w3.org/Graphics/SVG/1.1/DTD/svg11.dtd">
<svg width="100%" height="100%" viewBox="0 0 533 291" version="1.1" xmlns="http://www.w3.org/2000/svg" xmlns:xlink="http://www.w3.org/1999/xlink" xml:space="preserve" xmlns:serif="http://www.serif.com/" style="fill-rule:evenodd;clip-rule:evenodd;stroke-linecap:round;stroke-linejoin:round;stroke-miterlimit:1.5;">
    <g transform="matrix(1,0,0,1,-133.031,-197.121)">
        <g transform="matrix(0.195564,0.352578,-0.352578,0.195564,629.745,302.808)">
            <g transform="matrix(1.65286,-0.426968,0.216206,0.836964,-395.437,149.455)">
                <g transform="matrix(1.00011,-2.08126,1.0539,1.97503,-361.973,772.074)">
                    <path d="M362.333,237.612C362.939,240.835 366.048,242.96 369.271,242.354C372.494,241.748 374.619,238.639 374.013,235.416C373.407,232.193 370.298,230.069 367.075,230.675C363.852,231.28 361.727,234.389 362.333,237.612Z" style="fill:rgb(19,151,19);"/>
                    <path d="M494.884,258.905C497.413,260.992 497.773,264.74 495.686,267.27C493.599,269.799 489.85,270.158 487.321,268.071C484.791,265.984 484.432,262.236 486.519,259.706C488.606,257.177 492.354,256.818 494.884,258.905Z" style="fill:rgb(19,151,19);"/>
                    <path d="M367.514,233.01C366.074,208.697 382.798,170.334 399.073,166.077C414.001,162.173 442.317,142.859 447.856,137.604C456.486,129.414 483.346,179.805 491.977,201.867C500.521,223.708 466.622,202.421 465.507,229.975C464.975,243.107 479.072,254.18 488.352,261.219" style="fill:none;stroke:rgb(19,151,19);stroke-width:4.5px;"/>
                </g>
            </g>
            <g transform="matrix(1.65286,-0.426968,0.216206,0.836964,-453.84,148.432)">
                <g transform="matrix(1.00011,-2.08126,1.0539,1.97503,-328.998,790.118)">
                    <path d="M435.642,267.404C436.694,270.511 440.069,272.179 443.175,271.128C446.282,270.077 447.95,266.702 446.899,263.595C445.848,260.489 442.473,258.82 439.366,259.871C436.26,260.922 434.591,264.298 435.642,267.404Z" style="fill:rgb(178,34,34);"/>
                    <path d="M514.448,238.667C517.132,240.551 517.781,244.26 515.897,246.944C514.012,249.628 510.303,250.278 507.619,248.393C504.935,246.509 504.286,242.8 506.17,240.116C508.055,237.432 511.764,236.783 514.448,238.667Z" style="fill:rgb(178,34,34);"/>
                    <path d="M440.128,262.123C436.069,244.61 437.432,218.365 428.497,199.362C415.202,171.087 359.857,195.019 357.181,166.078C354.827,140.628 401.198,139.146 424.236,139.953C444.178,140.652 488.933,160.146 495.406,170.921C501.879,181.696 461.973,173.356 463.073,204.605C463.47,215.9 493.353,232.425 508.116,241.482" style="fill:none;stroke:rgb(178,34,34);stroke-width:4.5px;"/>
                </g>
            </g>
        </g>
        <g transform="matrix(0.403183,-1.73472e-18,1.73472e-18,0.403183,183.118,299.493)">
            <g transform="matrix(1.65286,-0.426968,0.216206,0.836964,-395.437,149.455)">
                <g transform="matrix(1.40672,0.717623,-0.363386,2.77802,212.918,-373.318)">
                    <path d="M69.626,241.224C68.327,244.235 69.718,247.734 72.729,249.033C75.74,250.332 79.239,248.941 80.538,245.93C81.837,242.919 80.446,239.419 77.435,238.121C74.424,236.822 70.925,238.212 69.626,241.224Z" style="fill:rgb(139,105,209);"/>
                    <path d="M167.179,266.445C170.256,267.581 171.832,271.001 170.696,274.077C169.56,277.154 166.14,278.729 163.064,277.593C159.987,276.458 158.412,273.038 159.547,269.961C160.683,266.885 164.103,265.309 167.179,266.445Z" style="fill:rgb(139,105,209);"/>
                    <path d="M76.494,240.303C82.748,225.549 92.12,198.6 70.028,196.283C48.026,193.976 72.639,273.147 29.72,209.577C-10.115,150.574 53.587,187.299 68.12,175.957C92.317,157.072 116.832,141.168 131.897,153.166C140.058,159.666 168.663,173.595 167.319,194.516C165.941,215.954 136.407,202.789 131.897,230.539C128.927,248.813 149.281,264.267 161.777,270.784" style="fill:none;stroke:rgb(139,105,209);stroke-width:4.5px;"/>
                </g>
            </g>
            <g transform="matrix(1.65286,-0.426968,0.216206,0.836964,-453.84,148.432)">
                <g transform="matrix(1.40672,0.717623,-0.363386,2.77802,245.893,-355.274)">
                    <path d="M94.447,225.152C97.147,227.013 100.85,226.332 102.712,223.632C104.573,220.931 103.892,217.228 101.192,215.367C98.492,213.506 94.788,214.187 92.927,216.887C91.066,219.587 91.747,223.29 94.447,225.152Z" style="fill:rgb(39,125,206);"/>
                    <path d="M174.553,246.801C171.467,245.691 169.864,242.284 170.974,239.199C172.084,236.113 175.491,234.509 178.577,235.619C181.663,236.73 183.266,240.136 182.156,243.222C181.046,246.308 177.639,247.912 174.553,246.801Z" style="fill:rgb(39,125,206);"/>
                    <path d="M94.884,218.236C80.287,211.772 56.302,212.856 44.925,195.81C28.324,170.938 95.862,137.55 106.499,135.157C121.686,131.74 106.699,185.908 123.114,196.136C136.69,204.596 195.788,190.129 197.256,225.034C197.969,241.986 187.823,243.752 179.92,242.417" style="fill:none;stroke:rgb(39,125,206);stroke-width:4.5px;"/>
                </g>
            </g>
        </g>
        <g transform="matrix(2.72698,0,0,2.72698,-271.092,-67.0602)">
            <g>
                <path d="M320.076,101.976L320.076,153.479C320.076,155.015 317.206,156.238 313.638,156.238L177.744,156.238C174.194,156.238 171.306,154.997 171.306,153.479L171.306,101.976C171.306,100.441 174.175,98.877 177.744,98.877L313.656,98.877C317.206,98.905 320.076,100.441 320.076,101.976Z" style="fill:rgb(39,125,206);fill-rule:nonzero;stroke:black;stroke-width:4px;stroke-linecap:butt;stroke-miterlimit:2;"/>
                <g transform="matrix(1,0,0,1,1.63798,-0.097)">
                    <rect x="236.623" y="117.271" width="70.78" height="2.502" style="fill:white;"/>
                </g>
                <g transform="matrix(1,0,0,1,1.63798,-0.097)">
                    <rect x="236.623" y="123.359" width="70.78" height="2.502" style="fill:white;fill-opacity:0.55;"/>
                </g>
                <g transform="matrix(1,0,0,1,1.63798,-0.097)">
                    <rect x="236.623" y="129.448" width="70.78" height="2.502" style="fill:white;fill-opacity:0.55;"/>
                </g>
                <g transform="matrix(1,0,0,1,1.63798,-0.097)">
                    <rect x="236.623" y="135.536" width="70.78" height="2.502" style="fill:white;fill-opacity:0.55;"/>
                </g>
                <g transform="matrix(1,0,0,1,1.63798,-3.01304)">
                    <g id="hand" transform="matrix(1,0,0,1,0,0.21672)">
                        <path d="M193.277,134.421C192.977,134.854 192.482,135.112 191.956,135.112C191.191,135.112 190.526,134.568 190.376,133.817L189.81,130.811C189.658,129.95 190.232,129.114 191.09,128.948C191.188,128.929 191.287,128.92 191.387,128.92C192.117,128.92 192.759,129.42 192.937,130.128L193.428,132.718C193.433,132.746 193.438,132.773 193.447,132.8L193.529,133.235C193.605,133.648 193.515,134.075 193.277,134.421Z" style="fill:white;fill-rule:nonzero;"/>
                        <path d="M196.198,133.822C196.098,133.84 195.997,133.849 195.897,133.849C195.123,133.849 194.454,133.293 194.313,132.532L193.678,129.15C193.659,129.05 193.65,128.949 193.65,128.847C193.65,127.962 194.379,127.232 195.265,127.232C196.037,127.232 196.707,127.787 196.852,128.546L197.488,131.918C197.508,132.02 197.518,132.123 197.518,132.227C197.518,133.003 196.961,133.676 196.198,133.822Z" style="fill:white;fill-rule:nonzero;"/>
                        <path d="M197.684,128.393C197.518,127.535 197.549,126.651 197.772,125.807C197.828,125.645 197.982,125.534 198.153,125.534C198.305,125.534 198.445,125.621 198.513,125.757C198.972,126.88 199.385,128.028 199.751,129.2C199.953,129.83 199.953,130.469 200.126,131.113C199.361,131.273 198.707,131.771 198.35,132.466C198.373,132.236 198.363,132.004 198.322,131.777L197.919,129.645L197.686,128.403L197.684,128.393Z" style="fill:white;fill-rule:nonzero;"/>
                        <path d="M200.718,118.95C200.96,119.384 201.193,119.822 201.42,120.264C201.735,120.867 202.355,121.683 202.531,121.021L203.02,119.282C203.23,118.391 202.673,117.484 201.784,117.269C201.346,117.151 200.881,117.208 200.484,117.428C200.225,117.573 200.011,117.786 199.864,118.044C200.221,118.269 200.515,118.582 200.718,118.95Z" style="fill:white;fill-rule:nonzero;"/>
                        <path d="M198.241,123.298C198.684,123.175 199.102,122.975 199.473,122.705C199.546,122.643 199.64,122.609 199.736,122.609C199.874,122.609 200.004,122.681 200.078,122.798C200.183,122.971 200.144,123.198 199.985,123.324C199.757,123.506 199.506,123.656 199.238,123.773C198.892,123.927 198.73,124.335 198.877,124.684C199.141,125.287 199.393,125.912 199.627,126.538C200.12,126.411 200.946,126.147 201.351,125.803C201.424,125.74 201.518,125.704 201.615,125.704C201.752,125.704 201.88,125.774 201.955,125.889C202.062,126.061 202.026,126.29 201.868,126.417C201.426,126.741 200.929,126.985 200.402,127.136C200.193,127.206 200.05,127.402 200.05,127.623C200.05,127.68 200.059,127.736 200.078,127.79C200.23,128.231 200.376,128.666 200.515,129.136C200.887,130.41 202.139,131.236 203.457,131.077C203.87,131.021 204.29,131.056 204.689,131.178C203.692,127.028 202.14,123.032 200.074,119.297C199.845,118.881 199.452,118.58 198.992,118.465C198.869,118.433 198.742,118.419 198.616,118.419C198.301,118.421 197.994,118.514 197.732,118.688C196.935,119.211 196.67,120.27 197.127,121.105C197.52,121.823 197.889,122.555 198.241,123.298Z" style="fill:white;fill-rule:nonzero;"/>
                        <path d="M203.83,131.791C205.045,131.791 206.045,132.791 206.045,134.006L206.045,138.372C206.046,139.849 205.497,141.276 204.506,142.372C203.908,143.035 203.578,143.897 203.58,144.789L203.58,146.305C202.199,146.847 200.627,147.135 199.042,147.23C198.468,147.264 197.893,147.278 197.325,147.278C195.785,147.278 194.384,146.99 193.137,146.546L193.137,144.958C193.136,144.04 192.783,143.156 192.15,142.489C191.092,141.381 190.501,139.906 190.501,138.373L190.501,135.52C190.914,135.81 191.406,135.966 191.911,135.965C192.063,135.964 192.214,135.95 192.364,135.922C193.31,135.742 194.067,135.021 194.291,134.084C194.738,134.472 195.31,134.687 195.901,134.688C196.055,134.689 196.209,134.674 196.359,134.644C197.095,134.507 197.73,134.038 198.076,133.374C198.071,133.467 198.07,133.561 198.075,133.653C198.075,134.527 198.517,135.344 199.248,135.822C198.973,135.91 198.704,136.016 198.443,136.14C196.59,136.882 195.545,138.134 195.403,139.785C195.402,139.795 195.401,139.805 195.401,139.815C195.401,140.02 195.569,140.188 195.774,140.188L195.775,140.188C195.968,140.187 196.13,140.037 196.145,139.846C196.268,138.485 197.126,137.473 198.703,136.841C199.571,136.507 200.485,136.309 201.413,136.251L203.229,136.251C203.436,136.258 203.613,136.102 203.632,135.897C203.633,135.887 203.633,135.878 203.633,135.868C203.633,135.663 203.465,135.495 203.26,135.494L200.71,135.494C199.717,135.505 198.877,134.73 198.808,133.738C198.806,133.708 198.806,133.677 198.806,133.647C198.806,132.631 199.641,131.793 200.658,131.791L203.83,131.791Z" style="fill:white;"/>
                    </g>
                    <g transform="matrix(0.375009,0,0,0.375009,97.2786,17.1322)">
                        <circle cx="268.773" cy="302.495" r="46.313" style="fill:none;stroke:white;stroke-width:3.91px;"/>
                    </g>
                </g>
            </g>
        </g>
    </g>
</svg>
